HIERARCHY
ROOT Hips
{
	OFFSET 0.000000 83.214638 0.000000
	CHANNELS 6 Xposition Yposition Zposition Xrotation Yrotation Zrotation
	JOINT Pelvis
	{
		OFFSET 0.000000 0.000000 0.000000
		CHANNELS 3 Xrotation Yrotation Zrotation
		JOINT LeftUpLeg
		{
			OFFSET 8.479700 -4.795502 -0.379100
			CHANNELS 3 Xrotation Yrotation Zrotation
			JOINT LeftLeg
			{
				OFFSET 0.024144 -32.555107 0.112900
				CHANNELS 3 Xrotation Yrotation Zrotation
				JOINT LeftFoot
				{
					OFFSET -0.024144 -32.638630 -3.012600
					CHANNELS 3 Xrotation Yrotation Zrotation
					JOINT LeftToeBase
					{
						OFFSET 0.970200 -13.225400 11.864200
						CHANNELS 3 Xrotation Yrotation Zrotation
						End Site
						{
							OFFSET 0.000000 12.319262 0.000000
						}
					}
					JOINT LFootTongue
					{
						OFFSET 1.142400 -1.059800 6.665200
						CHANNELS 3 Xrotation Yrotation Zrotation
						End Site
						{
							OFFSET 0.000000 12.319262 0.000000
						}
					}
				}
				JOINT LeftPantLeg
				{
					OFFSET 0.918482 -16.533964 -2.284700
					CHANNELS 3 Xrotation Yrotation Zrotation
					End Site
					{
						OFFSET 0.350399 24.744368 0.000000
					}
				}
			}
		}
		JOINT RightUpLeg
		{
			OFFSET -8.479700 -4.795502 -0.379100
			CHANNELS 3 Xrotation Yrotation Zrotation
			JOINT RightLeg
			{
				OFFSET -0.023144 -32.555092 0.112900
				CHANNELS 3 Xrotation Yrotation Zrotation
				JOINT RightFoot
				{
					OFFSET 0.023144 -32.638641 -3.012700
					CHANNELS 3 Xrotation Yrotation Zrotation
					JOINT RightToeBase
					{
						OFFSET -0.970200 -13.225400 11.864200
						CHANNELS 3 Xrotation Yrotation Zrotation
						End Site
						{
							OFFSET 0.000000 12.319244 0.000000
						}
					}
					JOINT RFootTongue
					{
						OFFSET -1.142200 -1.059800 6.665200
						CHANNELS 3 Xrotation Yrotation Zrotation
						End Site
						{
							OFFSET 0.000000 12.319243 0.000000
						}
					}
				}
				JOINT RightPantLeg
				{
					OFFSET -0.919482 -16.533978 -2.284800
					CHANNELS 3 Xrotation Yrotation Zrotation
					End Site
					{
						OFFSET -0.350400 24.744419 0.000000
					}
				}
			}
		}
	}
	JOINT Spine
	{
		OFFSET 0.000000 7.722000 1.166200
		CHANNELS 3 Xrotation Yrotation Zrotation
		JOINT Spine1
		{
			OFFSET 0.000000 12.024101 0.248800
			CHANNELS 3 Xrotation Yrotation Zrotation
			JOINT Spine2
			{
				OFFSET 0.000000 11.502998 -0.491200
				CHANNELS 3 Xrotation Yrotation Zrotation
				JOINT Neck
				{
					OFFSET 0.000000 18.430702 -3.123100
					CHANNELS 3 Xrotation Yrotation Zrotation
					JOINT Head
					{
						OFFSET 0.000000 9.051102 1.034000
						CHANNELS 3 Xrotation Yrotation Zrotation
						JOINT HairB
						{
							OFFSET 0.208400 24.786102 24.822300
							CHANNELS 3 Xrotation Yrotation Zrotation
							End Site
							{
								OFFSET 0.000000 32.263779 0.000000
							}
						}
						JOINT HairA
						{
							OFFSET -7.081100 24.428299 23.196600
							CHANNELS 3 Xrotation Yrotation Zrotation
							End Site
							{
								OFFSET 0.000000 32.263779 0.000000
							}
						}
						JOINT Hat
						{
							OFFSET 16.728800 15.048294 -15.439601
							CHANNELS 3 Xrotation Yrotation Zrotation
							End Site
							{
								OFFSET 0.000000 32.263779 0.000000
							}
						}
					}
				}
				JOINT LeftShoulder
				{
					OFFSET 6.197800 13.665199 -4.064700
					CHANNELS 3 Xrotation Yrotation Zrotation
					JOINT LeftArm
					{
						OFFSET 7.778100 -0.187103 -1.709300
						CHANNELS 3 Xrotation Yrotation Zrotation
						JOINT LeftForeArm
						{
							OFFSET 22.049376 0.000000 0.000000
							CHANNELS 3 Xrotation Yrotation Zrotation
							JOINT LeftHand
							{
								OFFSET 23.009392 0.000000 0.000000
								CHANNELS 3 Xrotation Yrotation Zrotation
								JOINT LeftHandThumb1
								{
									OFFSET 3.507191 -2.063065 3.133727
									CHANNELS 3 Xrotation Yrotation Zrotation
									JOINT LeftHandThumb2
									{
										OFFSET 3.101337 -1.790558 1.790558
										CHANNELS 3 Xrotation Yrotation Zrotation
										JOINT LeftHandThumb3
										{
											OFFSET 3.058640 -1.765907 1.765906
											CHANNELS 3 Xrotation Yrotation Zrotation
											End Site
											{
												OFFSET -0.415260 3.926476 -0.049563
											}
										}
									}
								}
								JOINT LeftHandIndex1
								{
									OFFSET 11.334419 -0.901459 3.706815
									CHANNELS 3 Xrotation Yrotation Zrotation
									JOINT LeftHandIndex2
									{
										OFFSET 3.283112 0.000000 0.000000
										CHANNELS 3 Xrotation Yrotation Zrotation
										JOINT LeftHandIndex3
										{
											OFFSET 3.323853 0.000000 0.000000
											CHANNELS 3 Xrotation Yrotation Zrotation
											End Site
											{
												OFFSET -1.135597 3.097809 0.402452
											}
										}
									}
								}
								JOINT LeftHandMiddle1
								{
									OFFSET 11.335861 0.000000 0.000000
									CHANNELS 3 Xrotation Yrotation Zrotation
									JOINT LeftHandMiddle2
									{
										OFFSET 3.410492 0.000000 0.000000
										CHANNELS 3 Xrotation Yrotation Zrotation
										JOINT LeftHandMiddle3
										{
											OFFSET 3.312172 0.000000 0.000000
											CHANNELS 3 Xrotation Yrotation Zrotation
											End Site
											{
												OFFSET -1.150200 3.080154 0.400270
											}
										}
									}
								}
								JOINT LeftHandRing1
								{
									OFFSET 11.514786 -0.013176 -3.003090
									CHANNELS 3 Xrotation Yrotation Zrotation
									JOINT LeftHandRing2
									{
										OFFSET 3.053307 0.000000 0.000000
										CHANNELS 3 Xrotation Yrotation Zrotation
										JOINT LeftHandRing3
										{
											OFFSET 3.295807 0.000000 0.000000
											CHANNELS 3 Xrotation Yrotation Zrotation
											End Site
											{
												OFFSET -1.281006 3.013344 0.375733
											}
										}
									}
								}
								JOINT LeftHandPinky1
								{
									OFFSET 10.518692 -0.960396 -5.730441
									CHANNELS 3 Xrotation Yrotation Zrotation
									JOINT LeftHandPinky2
									{
										OFFSET 2.861649 0.000000 0.000000
										CHANNELS 3 Xrotation Yrotation Zrotation
										JOINT LeftHandPinky3
										{
											OFFSET 2.863380 0.000000 0.000000
											CHANNELS 3 Xrotation Yrotation Zrotation
											End Site
											{
												OFFSET -0.843597 2.711159 0.369971
											}
										}
									}
								}
							}
							JOINT LSleeve
							{
								OFFSET 6.676277 -0.344902 -1.011730
								CHANNELS 3 Xrotation Yrotation Zrotation
								End Site
								{
									OFFSET 0.000000 14.885353 0.000000
								}
							}
						}
					}
				}
				JOINT RightShoulder
				{
					OFFSET -6.197800 13.665199 -4.064700
					CHANNELS 3 Xrotation Yrotation Zrotation
					JOINT RightArm
					{
						OFFSET -7.778100 -0.187103 -1.709300
						CHANNELS 3 Xrotation Yrotation Zrotation
						JOINT RightForeArm
						{
							OFFSET -22.049376 0.000000 0.000000
							CHANNELS 3 Xrotation Yrotation Zrotation
							JOINT RightHand
							{
								OFFSET -23.009392 0.000000 0.000000
								CHANNELS 3 Xrotation Yrotation Zrotation
								JOINT RightHandThumb1
								{
									OFFSET -3.507191 -2.063065 3.133727
									CHANNELS 3 Xrotation Yrotation Zrotation
									JOINT RightHandThumb2
									{
										OFFSET -3.101337 -1.790558 1.790558
										CHANNELS 3 Xrotation Yrotation Zrotation
										JOINT RightHandThumb3
										{
											OFFSET -3.058640 -1.765907 1.765906
											CHANNELS 3 Xrotation Yrotation Zrotation
											End Site
											{
												OFFSET 0.415260 3.926476 -0.049563
											}
										}
									}
								}
								JOINT RightHandIndex1
								{
									OFFSET -11.334419 -0.901459 3.706815
									CHANNELS 3 Xrotation Yrotation Zrotation
									JOINT RightHandIndex2
									{
										OFFSET -3.283112 0.000000 0.000000
										CHANNELS 3 Xrotation Yrotation Zrotation
										JOINT RightHandIndex3
										{
											OFFSET -3.323853 0.000000 0.000000
											CHANNELS 3 Xrotation Yrotation Zrotation
											End Site
											{
												OFFSET 1.135597 3.097809 0.402452
											}
										}
									}
								}
								JOINT RightHandMiddle1
								{
									OFFSET -11.335861 0.000000 0.000000
									CHANNELS 3 Xrotation Yrotation Zrotation
									JOINT RightHandMiddle2
									{
										OFFSET -3.410492 0.000000 0.000000
										CHANNELS 3 Xrotation Yrotation Zrotation
										JOINT RightHandMiddle3
										{
											OFFSET -3.312172 0.000000 0.000000
											CHANNELS 3 Xrotation Yrotation Zrotation
											End Site
											{
												OFFSET 1.150200 3.080154 0.400270
											}
										}
									}
								}
								JOINT RightHandRing1
								{
									OFFSET -11.514786 -0.013176 -3.003090
									CHANNELS 3 Xrotation Yrotation Zrotation
									JOINT RightHandRing2
									{
										OFFSET -3.053307 0.000000 0.000000
										CHANNELS 3 Xrotation Yrotation Zrotation
										JOINT RightHandRing3
										{
											OFFSET -3.295807 0.000000 0.000000
											CHANNELS 3 Xrotation Yrotation Zrotation
											End Site
											{
												OFFSET 1.281006 3.013344 0.375733
											}
										}
									}
								}
								JOINT RightHandPinky1
								{
									OFFSET -10.518692 -0.960396 -5.730441
									CHANNELS 3 Xrotation Yrotation Zrotation
									JOINT RightHandPinky2
									{
										OFFSET -2.861649 0.000000 0.000000
										CHANNELS 3 Xrotation Yrotation Zrotation
										JOINT RightHandPinky3
										{
											OFFSET -2.863380 0.000000 0.000000
											CHANNELS 3 Xrotation Yrotation Zrotation
											End Site
											{
												OFFSET 0.843597 2.711159 0.369971
											}
										}
									}
								}
							}
							JOINT RSleeve
							{
								OFFSET -6.676277 -0.344902 -1.011730
								CHANNELS 3 Xrotation Yrotation Zrotation
								End Site
								{
									OFFSET 0.000000 14.885353 0.000000
								}
							}
						}
					}
				}
				JOINT Backpack
				{
					OFFSET 0.000000 -2.471497 36.677502
					CHANNELS 3 Xrotation Yrotation Zrotation
					End Site
					{
						OFFSET 0.000000 20.427315 0.000000
					}
				}
				JOINT Hood
				{
					OFFSET 0.000000 18.754097 -10.431000
					CHANNELS 3 Xrotation Yrotation Zrotation
					JOINT Hood1
					{
						OFFSET 0.000000 -5.011002 -7.685901
						CHANNELS 3 Xrotation Yrotation Zrotation
						End Site
						{
							OFFSET 0.000000 9.175140 0.000000
						}
					}
				}
				JOINT LHoodieString
				{
					OFFSET 5.250500 16.397697 3.089900
					CHANNELS 3 Xrotation Yrotation Zrotation
					JOINT LHoodieString1
					{
						OFFSET 0.257700 -6.364304 3.694600
						CHANNELS 3 Xrotation Yrotation Zrotation
						JOINT LHoodieString2
						{
							OFFSET 0.000000 -9.643799 2.679100
							CHANNELS 3 Xrotation Yrotation Zrotation
							End Site
							{
								OFFSET 0.000000 10.009018 0.000000
							}
						}
					}
				}
				JOINT RHoodieString
				{
					OFFSET -5.250500 16.397697 3.089900
					CHANNELS 3 Xrotation Yrotation Zrotation
					JOINT RHoodieString1
					{
						OFFSET -0.257700 -6.364304 3.694600
						CHANNELS 3 Xrotation Yrotation Zrotation
						JOINT RHoodieString2
						{
							OFFSET 0.000000 -9.643799 2.679100
							CHANNELS 3 Xrotation Yrotation Zrotation
							End Site
							{
								OFFSET 0.000000 10.009018 0.000000
							}
						}
					}
				}
			}
			JOINT LBackpack_Strap
			{
				OFFSET 15.223200 -7.719803 -6.610900
				CHANNELS 3 Xrotation Yrotation Zrotation
				End Site
				{
					OFFSET 0.000000 16.040596 0.000000
				}
			}
			JOINT RBackpack_Strap
			{
				OFFSET -15.223000 -7.719803 -6.610900
				CHANNELS 3 Xrotation Yrotation Zrotation
				End Site
				{
					OFFSET 0.000000 16.040596 0.000000
				}
			}
		}
	}
	JOINT BoyFacialAnim_Joint
	{
		OFFSET 1.000000 -82.208099 -1.550900
		CHANNELS 3 Xrotation Yrotation Zrotation
		End Site
		{
			OFFSET 0.000000 30.012791 0.000000
		}
	}
}
MOTION
Frames: 4
Frame Time: 0.033333
-1.090331 71.015480 -1.470766 12.303896 60.301732 -3.767485 -0.000000 -0.000001 -0.000000 -34.586688 2.864727 22.296411 37.241125 9.794295 1.439657 11.068737 22.116204 -29.162476 0.000000 -0.000000 0.000000 0.000000 -0.000000 0.000000 0.000000 0.000001 -0.000003 -49.731512 0.781488 -34.689182 35.392196 5.283517 0.113671 8.850277 0.983568 19.333363 -0.000000 -0.000002 0.000000 -0.000000 -0.000002 0.000000 0.000001 -0.000002 0.000001 12.327299 -1.718592 2.651012 24.302467 -3.925483 3.542916 24.334320 -3.745060 3.460189 0.448406 0.287160 1.120024 -12.060612 -1.448953 12.090943 -0.000000 0.000002 0.000001 -0.000000 0.000002 0.000001 -0.000000 0.000002 0.000001 -0.738234 1.130561 22.608659 -82.804815 -61.695248 -45.608916 0.000003 -12.394833 0.000003 30.585717 0.507236 -15.072757 -1.540041 3.690187 6.142345 3.939060 7.948692 0.746815 -0.000003 -0.000001 0.000000 0.000032 -0.021376 0.177138 0.000096 0.032970 -0.273391 -0.000002 -0.000001 -0.000004 0.000008 -0.001930 0.015966 -0.000006 0.001931 -0.015972 0.000001 0.000003 -0.000003 0.000006 -0.000005 -0.000005 0.000005 -0.000004 -0.000001 -0.000001 -0.000002 -0.000006 -0.018075 4.054253 0.511063 -0.018101 -4.054258 -0.511059 -0.000002 -0.000001 -0.000000 -0.000001 -0.000001 -0.000002 -1.198753 -7.020401 -9.709504 -86.084064 51.464085 42.705529 -0.000003 46.280286 0.000005 23.841520 14.239989 17.675722 -1.849253 -3.581790 -6.586137 4.637204 -8.634129 -0.225405 0.000000 0.000001 0.000001 0.000031 0.021584 -0.177121 0.000081 -0.033313 0.273363 -0.000002 0.000001 -0.000002 0.000001 -0.000000 0.000001 0.000000 -0.000002 0.000002 0.000000 0.000000 -0.000000 0.000001 0.000001 -0.000003 -0.000001 0.000001 0.000002 0.000000 0.000000 0.000000 -0.000000 0.000000 -0.000006 -0.000001 0.000001 -0.000007 -0.000000 0.000000 -0.000001 -0.000003 0.000001 0.000001 0.000002 -0.000001 -0.000000 0.000002 -0.000001 -0.000000 0.000002 -0.000001 -0.000000 0.000002 -0.000001 -0.000000 0.000002 -0.000001 0.000001 -0.000000 0.000000 -0.000000 0.000002 -0.000001 -0.000000 0.000002 -0.000001 0.000001 -0.000000 0.000000 -0.000000 -0.000000 -0.000000 0.000000 -0.000000 -0.000000 0.000000 -0.000000 -0.000001 -0.000000 
-1.660889 69.798683 1.978479 10.871930 59.090289 -3.792913 0.000000 0.000000 -0.000000 -32.982970 2.194898 26.924824 37.235019 9.548219 1.397829 12.184840 20.929554 -32.353021 -0.000000 -0.000002 -0.000000 -0.000000 -0.000002 -0.000000 -0.000000 0.000001 0.000002 -54.084266 1.249069 -31.430765 47.087263 6.720402 0.251069 2.007357 -0.061178 16.087385 -0.000000 -0.000000 -0.000000 -0.000000 -0.000000 -0.000000 0.000000 -0.000001 0.000000 12.434735 -1.461901 3.385655 24.410860 -3.634255 4.204278 24.448833 -3.412428 4.103538 0.440339 1.122926 0.066501 -16.833720 1.073005 12.253582 0.000001 0.000000 0.000001 0.000001 0.000000 0.000001 0.000001 0.000000 0.000001 -0.719028 1.013390 22.947066 -75.619278 -59.597437 -38.247021 -0.000004 -15.260868 -0.000008 28.232816 0.951002 -17.357826 -1.540040 3.690186 6.142348 3.939061 7.948699 0.746815 -0.000000 0.000001 -0.000003 0.000030 -0.021373 0.177144 0.000094 0.032973 -0.273386 0.000001 -0.000001 -0.000004 0.000006 -0.001928 0.015971 -0.000004 0.001936 -0.015982 0.000006 0.000005 -0.000004 0.000007 -0.000007 -0.000002 0.000003 -0.000006 0.000002 -0.000003 0.000001 -0.000002 -0.018075 4.054255 0.511065 -0.018101 -4.054258 -0.511064 -0.000003 0.000002 0.000000 -0.000001 0.000001 0.000002 -1.121281 -6.163960 -10.482871 -85.766255 53.906882 43.246623 0.000005 44.346499 -0.000007 24.455100 14.409846 18.707183 -1.849254 -3.581790 -6.586133 4.637202 -8.634128 -0.225407 -0.000001 -0.000000 0.000001 0.000031 0.021585 -0.177123 0.000081 -0.033313 0.273359 0.000001 0.000000 0.000002 0.000000 -0.000001 0.000003 0.000000 -0.000001 -0.000002 -0.000000 0.000000 -0.000000 -0.000000 0.000000 0.000002 -0.000001 0.000002 0.000001 -0.000000 0.000000 0.000000 -0.000003 0.000000 -0.000006 -0.000002 0.000000 -0.000007 -0.000000 -0.000000 0.000000 0.000001 0.000000 -0.000000 0.000001 0.000000 -0.000000 0.000001 0.000000 -0.000000 0.000001 0.000000 -0.000000 0.000001 0.000000 -0.000000 0.000001 0.000000 0.000001 0.000001 0.000001 -0.000000 0.000001 0.000000 -0.000000 0.000001 0.000000 0.000001 0.000001 0.000001 -0.000000 -0.000000 -0.000001 0.000003 -0.000000 -0.000001 0.000003 0.000000 0.000000 -0.000000 
-1.997809 69.074615 5.102352 10.673035 57.380037 -4.562874 0.000000 -0.000000 -0.000000 -29.960031 2.075120 30.484787 34.792065 8.760760 1.410341 13.615162 21.008185 -35.629183 -0.000000 0.000000 -0.000000 -0.000000 0.000000 0.000000 -0.000000 0.000001 -0.000001 -57.221354 0.250371 -28.499461 54.226911 7.989983 0.318678 -2.689655 -0.387260 12.802006 0.000000 0.000002 -0.000000 0.000000 0.000002 -0.000000 -0.000000 0.000003 0.000000 12.481148 -1.504112 3.635325 24.498934 -3.714676 4.634138 24.536749 -3.503026 4.534087 0.277963 1.761276 -0.111847 -20.607094 3.494779 13.059183 -0.000000 0.000003 0.000002 -0.000000 0.000003 0.000002 -0.000000 0.000003 0.000002 -0.591172 0.642447 22.497342 -73.530347 -57.785613 -35.580378 0.000008 -13.693683 0.000002 26.871156 1.503794 -16.784449 -1.540040 3.690188 6.142352 3.939061 7.948691 0.746813 -0.000001 0.000002 0.000000 0.000032 -0.021372 0.177139 0.000098 0.032969 -0.273400 0.000001 0.000000 -0.000005 0.000008 -0.001932 0.015972 -0.000005 0.001933 -0.015975 0.000000 0.000003 -0.000003 0.000009 -0.000005 0.000000 0.000007 -0.000007 0.000000 -0.000001 0.000001 -0.000004 -0.018072 4.054253 0.511063 -0.018096 -4.054256 -0.511059 -0.000002 -0.000001 0.000005 -0.000001 0.000002 0.000002 -1.083333 -5.610325 -11.244331 -86.161224 55.681191 44.570697 0.000002 42.684765 0.000002 26.424545 14.773324 17.224764 -1.849252 -3.581790 -6.586135 4.637203 -8.634127 -0.225406 -0.000001 0.000001 -0.000001 0.000032 0.021584 -0.177121 0.000083 -0.033313 0.273359 -0.000000 0.000000 0.000002 0.000000 -0.000000 0.000004 -0.000000 -0.000002 0.000002 0.000001 0.000001 -0.000000 0.000001 -0.000000 0.000006 -0.000001 0.000001 0.000001 -0.000001 0.000000 0.000000 -0.000001 0.000001 -0.000003 -0.000001 0.000001 -0.000007 -0.000000 -0.000000 -0.000001 0.000001 -0.000001 -0.000000 -0.000000 -0.000001 -0.000001 -0.000000 -0.000001 -0.000001 -0.000000 -0.000001 -0.000001 -0.000000 -0.000001 -0.000001 -0.000000 -0.000001 0.000001 0.000001 -0.000001 0.000001 -0.000000 -0.000001 -0.000001 -0.000000 -0.000001 0.000001 0.000001 -0.000001 0.000001 -0.000003 -0.000000 0.000002 -0.000003 -0.000000 0.000002 0.000000 -0.000000 -0.000000 
-2.067461 68.977242 7.762050 11.796933 55.688032 -5.957742 -0.000000 0.000003 -0.000001 -27.465463 2.213539 32.264506 31.556734 7.185117 1.416580 14.184378 21.572893 -36.204049 -0.000000 -0.000001 0.000000 -0.000000 -0.000001 0.000000 0.000001 -0.000000 -0.000002 -59.132766 -1.042945 -26.114849 57.885737 8.868242 0.340418 -5.805851 -0.504510 10.115447 -0.000000 0.000002 -0.000000 -0.000000 0.000002 -0.000000 -0.000000 -0.000001 -0.000001 12.482624 -1.822657 3.657401 24.546604 -4.280483 4.904011 24.585064 -4.095986 4.808359 -0.101877 2.008125 0.824679 -21.738279 5.100694 14.527985 -0.000003 -0.000001 0.000003 -0.000003 -0.000001 0.000003 -0.000003 -0.000001 0.000003 -0.472176 0.310016 21.815998 -77.080194 -56.852169 -38.592054 -0.000001 -8.224441 -0.000008 27.858842 2.391942 -13.310598 -1.540038 3.690188 6.142348 3.939064 7.948697 0.746816 0.000000 -0.000000 0.000001 0.000032 -0.021372 0.177143 0.000094 0.032971 -0.273393 -0.000004 -0.000000 -0.000002 0.000005 -0.001936 0.015970 -0.000008 0.001937 -0.015981 0.000002 -0.000000 -0.000005 0.000007 -0.000007 -0.000005 0.000003 -0.000006 0.000000 0.000002 0.000003 -0.000003 -0.018074 4.054258 0.511056 -0.018100 -4.054259 -0.511057 0.000000 0.000003 0.000002 -0.000000 -0.000002 0.000001 -1.085281 -5.440707 -11.667037 -86.176975 56.377396 45.701796 0.000001 41.878229 -0.000002 29.317607 15.442569 14.850141 -1.849254 -3.581790 -6.586133 4.637203 -8.634126 -0.225407 0.000000 0.000001 0.000002 0.000031 0.021584 -0.177123 0.000082 -0.033312 0.273359 -0.000002 -0.000000 0.000002 -0.000000 -0.000001 0.000004 0.000001 -0.000001 -0.000002 0.000001 0.000000 0.000001 0.000000 -0.000001 0.000006 -0.000000 0.000000 0.000000 0.000001 0.000000 0.000002 -0.000000 0.000001 -0.000004 -0.000001 -0.000000 -0.000002 -0.000000 0.000000 -0.000001 0.000001 -0.000001 -0.000002 -0.000000 0.000001 -0.000001 -0.000000 0.000001 -0.000001 -0.000000 0.000001 -0.000001 -0.000000 0.000001 -0.000001 -0.000000 0.000001 -0.000001 -0.000000 0.000002 -0.000004 -0.000000 0.000001 -0.000001 -0.000000 0.000001 -0.000001 -0.000000 0.000002 -0.000004 0.000003 -0.000003 0.000003 0.000003 -0.000003 0.000003 -0.000000 0.000003 -0.000001 
